<svg width="32" height="32" viewBox="0 0 32 32" fill="none" xmlns="http://www.w3.org/2000/svg">
    <path d="M0 10.9714C0 7.13107 0 5.21089 0.747383 3.74407C1.4048 2.45381 2.45381 1.4048 3.74407 0.747383C5.21089 0 7.13107 0 10.9714 0H21.0286C24.8689 0 26.7891 0 28.2559 0.747383C29.5462 1.4048 30.5952 2.45381 31.2526 3.74407C32 5.21089 32 7.13107 32 10.9714V21.0286C32 24.8689 32 26.7891 31.2526 28.2559C30.5952 29.5462 29.5462 30.5952 28.2559 31.2526C26.7891 32 24.8689 32 21.0286 32H10.9714C7.13107 32 5.21089 32 3.74407 31.2526C2.45381 30.5952 1.4048 29.5462 0.747383 28.2559C0 26.7891 0 24.8689 0 21.0286V10.9714Z" fill="#5865F2"/>
    <path d="M24.7271 8.38883C23.0996 7.67341 21.3592 7.15346 19.5399 6.85742C19.3165 7.23695 19.0555 7.74742 18.8755 8.15351C16.9414 7.88026 15.0252 7.88026 13.1267 8.15351C12.9468 7.74742 12.6797 7.23695 12.4543 6.85742C10.6329 7.15346 8.89074 7.67531 7.2632 8.39262C3.98044 13.0532 3.09053 17.5981 3.53548 22.0785C5.71278 23.6061 7.82285 24.534 9.89728 25.1412C10.4095 24.479 10.8663 23.775 11.2599 23.033C10.5103 22.7654 9.79248 22.4353 9.1142 22.0518C9.2942 21.9267 9.4702 21.7957 9.64026 21.661C13.7774 23.4789 18.2723 23.4789 22.36 21.661C22.532 21.7957 22.708 21.9267 22.886 22.0518C22.2057 22.4371 21.4859 22.7673 20.7364 23.0349C21.1299 23.775 21.5847 24.4809 22.0989 25.1431C24.1753 24.5359 26.2873 23.6079 28.4647 22.0785C28.9868 16.8846 27.5728 12.3814 24.7271 8.38883ZM11.8235 19.3231C10.5815 19.3231 9.56311 18.2338 9.56311 16.9074C9.56311 15.581 10.5598 14.4898 11.8235 14.4898C13.0871 14.4898 14.1055 15.579 14.0838 16.9074C14.0859 18.2338 13.0871 19.3231 11.8235 19.3231ZM20.1767 19.3231C18.9348 19.3231 17.9164 18.2338 17.9164 16.9074C17.9164 15.581 18.9131 14.4898 20.1767 14.4898C21.4404 14.4898 22.4589 15.579 22.4371 16.9074C22.4371 18.2338 21.4404 19.3231 20.1767 19.3231Z" fill="white"/>
</svg>
