<svg width="81" height="36" viewBox="0 0 81 36" fill="none" xmlns="http://www.w3.org/2000/svg">
    <path d="M3.33984 29V12.0469H0.507812V8.35547H3.33984V6.51953C3.33984 2.49609 5.25391 0.601562 9.74609 0.601562C10.7031 0.601562 11.7578 0.699219 12.3633 0.816406V4.21484C11.9531 4.15625 11.3867 4.09766 10.8203 4.09766C8.96484 4.09766 8.125 4.97656 8.125 6.65625V8.35547H12.2656V12.0469H8.20312V29H3.33984ZM15.4688 29V8.29688H20.1367V11.8516H20.2344C21.3477 9.39062 23.5547 7.90625 26.7383 7.90625C31.3086 7.90625 33.9062 10.8359 33.9062 15.6211V29H29.043V16.5977C29.043 13.668 27.6758 12.0273 24.9023 12.0273C22.1094 12.0273 20.332 14.0391 20.332 17.0078V29H15.4688ZM49.1797 7.94531C54.4336 7.94531 57.7734 12.0273 57.7734 18.6484C57.7734 25.25 54.4531 29.332 49.2578 29.332C46.25 29.332 43.9062 27.8867 42.7734 25.5625H42.6758V35.8164H37.8125V8.29688H42.5586V11.8711H42.6562C43.8281 9.46875 46.1719 7.94531 49.1797 7.94531ZM47.6953 25.3477C50.8398 25.3477 52.793 22.75 52.793 18.6484C52.793 14.5664 50.8398 11.9492 47.6953 11.9492C44.668 11.9492 42.6562 14.625 42.6367 18.6484C42.6562 22.7109 44.668 25.3477 47.6953 25.3477ZM68.6328 29.332C63.418 29.332 60.0391 25.2109 60.0391 18.6289C60.0391 12.0859 63.418 7.94531 68.6328 7.94531C71.6016 7.94531 73.9453 9.48828 75.0391 11.7734H75.1562V0.816406H80.0195V29H75.2539V25.4648H75.1758C74.043 27.7891 71.6602 29.332 68.6328 29.332ZM70.0977 11.9492C66.9727 11.9492 65.0195 14.5469 65.0195 18.6484C65.0195 22.7695 66.9531 25.3477 70.0977 25.3477C73.1641 25.3477 75.1758 22.75 75.1758 18.6484C75.1758 14.5859 73.1641 11.9492 70.0977 11.9492Z" fill="#F0E8D5"/>
</svg>
