<svg width="30" height="30" viewBox="0 0 30 30" fill="none" xmlns="http://www.w3.org/2000/svg">
    <path d="M20.7311 9.11013C20.7368 9.11013 20.7444 9.11013 20.752 9.11013C20.9511 9.11013 21.1358 9.17203 21.2873 9.2787L21.2844 9.2768C21.3949 9.37299 21.4692 9.50822 21.4873 9.6606V9.66346C21.5063 9.77965 21.5168 9.91299 21.5168 10.0492C21.5168 10.1111 21.5149 10.172 21.5101 10.233V10.2244C21.2958 12.4806 20.3663 17.952 19.8939 20.4777C19.6939 21.5473 19.3006 21.9054 18.9197 21.9397C18.092 22.0168 17.4635 21.393 16.6616 20.8673C15.4063 20.0435 14.6968 19.5311 13.4787 18.7282C12.0701 17.8016 12.9835 17.2901 13.7854 16.4577C13.9958 16.2387 17.6444 12.9197 17.7158 12.6187C17.7197 12.6006 17.7216 12.5806 17.7216 12.5597C17.7216 12.4854 17.6939 12.4177 17.6492 12.3663C17.5997 12.3339 17.5377 12.3158 17.473 12.3158C17.4301 12.3158 17.3892 12.3244 17.3511 12.3387L17.353 12.3377C17.2273 12.3663 15.2222 13.6914 11.3377 16.313C10.9139 16.6473 10.3787 16.8587 9.79584 16.8835H9.79013C8.96441 16.7835 8.21489 16.5997 7.50346 16.3377L7.57394 16.3606C6.68061 16.0692 5.97108 15.9158 6.03203 15.4225C6.06441 15.166 6.41807 14.9035 7.09299 14.6349C11.2504 12.8235 14.0228 11.6295 15.4101 11.053C16.9406 10.2406 18.7149 9.57203 20.5806 9.1387L20.7301 9.10918L20.7311 9.11013ZM14.8339 0.524414C6.92727 0.543462 0.524414 6.95775 0.524414 14.8673C0.524414 22.7882 6.94537 29.2101 14.8673 29.2101C22.7892 29.2101 29.2101 22.7892 29.2101 14.8673C29.2101 6.95775 22.8073 0.543462 14.9025 0.524414H14.9006C14.8784 0.524414 14.8562 0.524414 14.8339 0.524414Z" fill="white"/>
</svg>
